<svg width="60" height="90" viewBox="0 0 60 90" fill="none" xmlns="http://www.w3.org/2000/svg">
<path d="M29.8649 2.57873L17.2882 12.9733C16.8625 13.3251 16.35 13.1951 16.1434 12.6829C15.9368 12.1707 16.1145 11.4703 16.5402 11.1184L29.2173 0.640855C29.2933 0.577991 29.3722 0.530509 29.4515 0.49784C29.7024 0.272793 30.0638 0.270065 30.378 0.529685L43.0551 11.0073C43.4808 11.3591 43.6584 12.0595 43.4518 12.5717C43.2453 13.0839 42.7327 13.2139 42.307 12.8621L36.0859 7.72041L29.8649 2.57873Z" fill="#D9D9D9" fill-opacity="0.5"/>
<path d="M29.8648 15.4644L17.2882 25.8589C16.8625 26.2108 16.35 26.0808 16.1434 25.5686C15.9368 25.0564 16.1145 24.356 16.5402 24.0041L29.2173 13.5265C29.2934 13.4636 29.3723 13.4161 29.4517 13.3835C29.7025 13.1585 30.0639 13.1559 30.378 13.4154L43.0551 23.893C43.4808 24.2448 43.6584 24.9453 43.4518 25.4575C43.2453 25.9697 42.7327 26.0997 42.307 25.7478L29.8648 15.4644Z" fill="#D9D9D9"/>
</svg>

